<svg class="animated" id="freepik_stories-reading-list" xmlns="http://www.w3.org/2000/svg"
    viewBox="0 0 500 500" version="1.1" xmlns:xlink="http://www.w3.org/1999/xlink"
    xmlns:svgjs="http://svgjs.com/svgjs">
    <style>svg#freepik_stories-reading-list:not(.animated) .animable {opacity:
        0;}svg#freepik_stories-reading-list.animated #freepik--Character--inject-416 {animation:
        1.5s Infinite linear floating;animation-delay: 0s;} @keyframes floating { 0% { opacity: 1;
        transform: translateY(0px); } 50% { transform: translateY(-10px); } 100% { opacity: 1;
        transform: translateY(0px); } } </style>
    <g id="freepik--background-complete--inject-416" class="animable"
        style="transform-origin: 250px 228.23px;">
        <rect y="382.4" width="500" height="0.25"
            style="fill: rgb(235, 235, 235); transform-origin: 250px 382.525px;" id="el3l28kmdszpe"
            class="animable"></rect>
        <rect x="435" y="398.49" width="14.9" height="0.25"
            style="fill: rgb(235, 235, 235); transform-origin: 442.45px 398.615px;"
            id="el9v370bldkm" class="animable"></rect>
        <rect x="322.53" y="401.21" width="8.69" height="0.25"
            style="fill: rgb(235, 235, 235); transform-origin: 326.875px 401.335px;"
            id="el79fe7yuvy7s" class="animable"></rect>
        <rect x="396.59" y="389.21" width="34.19" height="0.25"
            style="fill: rgb(235, 235, 235); transform-origin: 413.685px 389.335px;"
            id="elhxp0u6yf25t" class="animable"></rect>
        <rect x="66.44" y="394.37" width="43.19" height="0.25"
            style="fill: rgb(235, 235, 235); transform-origin: 88.035px 394.495px;"
            id="elx6stzzfuamc" class="animable"></rect>
        <rect x="118.53" y="394.37" width="15.58" height="0.25"
            style="fill: rgb(235, 235, 235); transform-origin: 126.32px 394.495px;"
            id="ell8gnu9e8ejk" class="animable"></rect>
        <rect x="161.08" y="391.01" width="93.68" height="0.25"
            style="fill: rgb(235, 235, 235); transform-origin: 207.92px 391.135px;"
            id="elozrrkv6251" class="animable"></rect>
        <path
            d="M237,337.8H43.91a5.71,5.71,0,0,1-5.7-5.71V60.66A5.71,5.71,0,0,1,43.91,55H237a5.71,5.71,0,0,1,5.71,5.71V332.09A5.71,5.71,0,0,1,237,337.8ZM43.91,55.2a5.46,5.46,0,0,0-5.45,5.46V332.09a5.46,5.46,0,0,0,5.45,5.46H237a5.47,5.47,0,0,0,5.46-5.46V60.66A5.47,5.47,0,0,0,237,55.2Z"
            style="fill: rgb(235, 235, 235); transform-origin: 140.46px 196.4px;" id="elnr3rfwh82x"
            class="animable"></path>
        <path
            d="M453.31,337.8H260.21a5.72,5.72,0,0,1-5.71-5.71V60.66A5.72,5.72,0,0,1,260.21,55h193.1A5.71,5.71,0,0,1,459,60.66V332.09A5.71,5.71,0,0,1,453.31,337.8ZM260.21,55.2a5.47,5.47,0,0,0-5.46,5.46V332.09a5.47,5.47,0,0,0,5.46,5.46h193.1a5.47,5.47,0,0,0,5.46-5.46V60.66a5.47,5.47,0,0,0-5.46-5.46Z"
            style="fill: rgb(235, 235, 235); transform-origin: 356.75px 196.4px;" id="eldpobii460wu"
            class="animable"></path>
        <g id="elnffg5gpfzoi">
            <rect x="214.47" y="254.53" width="18.62" height="127.87"
                style="fill: rgb(230, 230, 230); transform-origin: 223.78px 318.465px; transform: rotate(180deg);"
                class="animable" id="elhpvdlgq4ywd"></rect>
        </g>
        <polygon points="221.03 382.4 214.47 382.4 214.47 358.1 227.9 358.1 221.03 382.4"
            style="fill: rgb(240, 240, 240); transform-origin: 221.185px 370.25px;"
            id="elmvcel2zw06h" class="animable"></polygon>
        <g id="ellu4i84ylmaq">
            <rect x="411.4" y="254.53" width="18.62" height="127.87"
                style="fill: rgb(230, 230, 230); transform-origin: 420.71px 318.465px; transform: rotate(180deg);"
                class="animable" id="ele0gobjdf5kb"></rect>
        </g>
        <g id="elgzmtw6msv3">
            <rect x="214.47" y="254.53" width="202.64" height="121.24"
                style="fill: rgb(240, 240, 240); transform-origin: 315.79px 315.15px; transform: rotate(180deg);"
                class="animable" id="el319r4t7zewb"></rect>
        </g>
        <polygon points="410.56 382.4 417.12 382.4 417.12 358.1 403.69 358.1 410.56 382.4"
            style="fill: rgb(240, 240, 240); transform-origin: 410.405px 370.25px;"
            id="elnt3nwpdm7o" class="animable"></polygon>
        <g id="el2v5pjlpkhff">
            <rect x="330.2" y="284.68" width="100.29" height="60.07"
                style="fill: rgb(230, 230, 230); transform-origin: 380.345px 314.715px; transform: rotate(-90deg);"
                class="animable" id="el2otbsnc5tmc"></rect>
        </g>
        <path
            d="M374.4,268.09h11.89A20.17,20.17,0,0,0,399.94,263H360.76A20.14,20.14,0,0,0,374.4,268.09Z"
            style="fill: rgb(240, 240, 240); transform-origin: 380.35px 265.546px;"
            id="el8bd6hvpyfzi" class="animable"></path>
        <g id="eldbohnfnvyhh">
            <rect x="265.65" y="284.68" width="100.29" height="60.07"
                style="fill: rgb(230, 230, 230); transform-origin: 315.795px 314.715px; transform: rotate(-90deg);"
                class="animable" id="elc7dlihl8sda"></rect>
        </g>
        <path
            d="M309.25,268.09h11.88A20.17,20.17,0,0,0,334.78,263H295.6A20.17,20.17,0,0,0,309.25,268.09Z"
            style="fill: rgb(240, 240, 240); transform-origin: 315.19px 265.546px;"
            id="elqyuup6t594a" class="animable"></path>
        <g id="elwuxmxofwks">
            <rect x="201.1" y="284.68" width="100.29" height="60.07"
                style="fill: rgb(230, 230, 230); transform-origin: 251.245px 314.715px; transform: rotate(-90deg);"
                class="animable" id="el82z14xu66va"></rect>
        </g>
        <path
            d="M244.7,268.09h11.88A20.15,20.15,0,0,0,270.23,263H231.05A20.17,20.17,0,0,0,244.7,268.09Z"
            style="fill: rgb(240, 240, 240); transform-origin: 250.64px 265.546px;"
            id="elokffdzt5y8" class="animable"></path>
        <g id="eluqwtbs3j0dm">
            <rect x="69.98" y="96.78" width="127.06" height="285.62"
                style="fill: rgb(240, 240, 240); transform-origin: 133.51px 239.59px; transform: rotate(180deg);"
                class="animable" id="eltv8nca1a29l"></rect>
        </g>
        <g id="elug09llenw4s">
            <rect x="69.98" y="96.78" width="124.38" height="285.62"
                style="fill: rgb(245, 245, 245); transform-origin: 132.17px 239.59px; transform: rotate(180deg);"
                class="animable" id="elq3xie16tlic"></rect>
        </g>
        <g id="elhdijmlxyxr">
            <rect x="-4.16" y="184.98" width="272.66" height="109.22"
                style="fill: rgb(240, 240, 240); transform-origin: 132.17px 239.59px; transform: rotate(90deg);"
                class="animable" id="elpo4q003ub3n"></rect>
        </g>
        <path
            d="M176.05,154h0a29.78,29.78,0,0,0-29.78-29.78h-28.2A29.78,29.78,0,0,0,88.29,154h87.76Z"
            style="fill: rgb(250, 250, 250); transform-origin: 132.17px 139.11px;" id="elxd57epmh9c"
            class="animable"></path>
        <g id="el0xjd4wcjeqd">
            <rect x="99.6" y="282.52" width="65.14" height="87.75"
                style="fill: rgb(245, 245, 245); transform-origin: 132.17px 326.395px; transform: rotate(90deg);"
                class="animable" id="el20w9jzz0wqa"></rect>
        </g>
        <rect x="137.34" y="172.33" width="38.71" height="113.09"
            style="fill: rgb(245, 245, 245); transform-origin: 156.695px 228.875px;"
            id="elxsyphqii4ne" class="animable"></rect>
        <rect x="88.29" y="172.33" width="38.71" height="113.09"
            style="fill: rgb(245, 245, 245); transform-origin: 107.645px 228.875px;"
            id="elfyh2txj3xmv" class="animable"></rect>
        <path
            d="M102.33,228.37H86.48A2.46,2.46,0,0,1,84,225.91h0a2.46,2.46,0,0,1,2.46-2.46h15.85a2.47,2.47,0,0,1,2.46,2.46h0A2.46,2.46,0,0,1,102.33,228.37Z"
            style="fill: rgb(224, 224, 224); transform-origin: 94.385px 225.91px;"
            id="elkgz4vdn5tgn" class="animable"></path>
        <g id="ell65ok63aqcm">
            <rect x="-57.79" y="238.61" width="272.66" height="1.97"
                style="fill: rgb(240, 240, 240); transform-origin: 78.54px 239.595px; transform: rotate(90deg);"
                class="animable" id="eljjt40mvu8q"></rect>
        </g>
        <g id="elry2fqyqc76b">
            <rect x="277.41" y="96.78" width="134.74" height="126.4"
                style="fill: rgb(230, 230, 230); transform-origin: 344.78px 159.98px; transform: rotate(180deg);"
                class="animable" id="eljyum65egiuc"></rect>
        </g>
        <g id="elc75cir8aati">
            <rect x="274.01" y="96.78" width="134.74" height="126.4"
                style="fill: rgb(245, 245, 245); transform-origin: 341.38px 159.98px; transform: rotate(180deg);"
                class="animable" id="el6pgls6sz2k"></rect>
        </g>
        <g id="ell7lszmcgq5">
            <rect x="266.15" y="223.18" width="146.01" height="7.32"
                style="fill: rgb(230, 230, 230); transform-origin: 339.155px 226.84px; transform: rotate(180deg);"
                class="animable" id="el3yi7nj6mrqy"></rect>
        </g>
        <g id="elp1i91pxb6vl">
            <rect x="262.32" y="223.18" width="138.49" height="7.32"
                style="fill: rgb(245, 245, 245); transform-origin: 331.565px 226.84px; transform: rotate(180deg);"
                class="animable" id="el19t2lqs19ga"></rect>
        </g>
        <g id="el3dml8f1ez09">
            <rect x="284.76" y="98.7" width="113.25" height="122.55"
                style="fill: rgb(255, 255, 255); transform-origin: 341.385px 159.975px; transform: rotate(90deg);"
                class="animable" id="el22sici42f6x"></rect>
        </g>
        <g id="elev8vxs6yvn">
            <rect x="284.76" y="156.58" width="113.25" height="6.79"
                style="fill: rgb(245, 245, 245); transform-origin: 341.385px 159.975px; transform: rotate(90deg);"
                class="animable" id="elw9l2p6kfsh"></rect>
        </g>
        <g id="el5d2eh9ixoxp">
            <rect x="224.77" y="158.69" width="113.25" height="2.57"
                style="fill: rgb(230, 230, 230); transform-origin: 281.395px 159.975px; transform: rotate(90deg);"
                class="animable" id="elsuy1opuu8h"></rect>
        </g>
        <g id="elwew87sr1li">
            <rect x="289.44" y="158.69" width="113.25" height="2.57"
                style="fill: rgb(230, 230, 230); transform-origin: 346.065px 159.975px; transform: rotate(90deg);"
                class="animable" id="elrf59bmdui5m"></rect>
        </g>
        <path
            d="M295.52,226.53c-2.48-25.68-4.2-67.34-2.86-81.28a1.68,1.68,0,0,1,.69-1.2h0a1.72,1.72,0,0,1,2.73,1.43c-.24,6.91-.51,24.17,1,53.94.73,14.82,1.79,25,1.06,27.11Z"
            style="fill: rgb(230, 230, 230); transform-origin: 295.289px 185.126px;"
            id="el9w91uidyas" class="animable"></path>
        <path
            d="M286.28,167.35c-7-7.84-21.46-13.41-36.15-13.38-5.76,0,17.54,9.11,27.23,19.16,7.53,7.8,16,20.93,18.91,28.22C294.4,186,293.34,175.18,286.28,167.35Z"
            style="fill: rgb(230, 230, 230); transform-origin: 272.748px 177.66px;"
            id="elrnq7rgjbvvd" class="animable"></path>
        <path
            d="M300.27,169.74c5.86-8.16,19.39-14.44,34-15.15,5.75-.28-16.11,10-24.27,20.46-6.34,8.15-12.84,21.66-14.62,29.06C295,188.74,294.41,177.9,300.27,169.74Z"
            style="fill: rgb(230, 230, 230); transform-origin: 315.189px 179.347px;"
            id="el9achh3lmvbi" class="animable"></path>
        <path
            d="M286,138.74c-6-6.64-18.18-11.36-30.61-11.33-4.89,0,14.85,7.72,23.06,16.22,6.37,6.61,13.56,17.73,16,23.9C292.84,154.55,291.94,145.37,286,138.74Z"
            style="fill: rgb(230, 230, 230); transform-origin: 274.536px 147.47px;"
            id="elg5na008dffj" class="animable"></path>
        <path
            d="M297.81,148.55c5-6.91,16.42-12.23,28.81-12.83,4.86-.23-13.65,8.44-20.55,17.33-5.37,6.9-10.87,18.34-12.39,24.61C293.32,164.64,292.85,155.46,297.81,148.55Z"
            style="fill: rgb(230, 230, 230); transform-origin: 310.448px 156.688px;"
            id="elclixm3xiljh" class="animable"></path>
        <path
            d="M296.52,254.53h0A14.6,14.6,0,0,1,282,240.78l-1.28-22.32h31.7l-1.29,22.32A14.59,14.59,0,0,1,296.52,254.53Z"
            style="fill: rgb(230, 230, 230); transform-origin: 296.57px 236.495px;"
            id="elr8t82armihi" class="animable"></path>
        <polygon points="314.42 223.53 278.61 223.53 277.59 214.24 315.44 214.24 314.42 223.53"
            style="fill: rgb(230, 230, 230); transform-origin: 296.515px 218.885px;"
            id="eluz4jgqmhtje" class="animable"></polygon>
    </g>
    <g id="freepik--Shadow--inject-416" class="animable" style="transform-origin: 250px 416.24px;">
        <ellipse id="freepik--path--inject-416" cx="250" cy="416.24" rx="193.89" ry="11.32"
            style="fill: rgb(245, 245, 245); transform-origin: 250px 416.24px;" class="animable"></ellipse>
    </g>
    <g id="freepik--Character--inject-416" class="animable animator-active"
        style="transform-origin: 221.207px 253.292px;">
        <polygon points="253.91 405.42 245.56 406.36 242.48 387.42 250.83 386.48 253.91 405.42"
            style="fill: rgb(255, 195, 189); transform-origin: 248.195px 396.42px;"
            id="el08a2q3ppxate" class="animable"></polygon>
        <polygon points="291.29 407.24 282.95 407.24 280.88 387.93 289.22 387.93 291.29 407.24"
            style="fill: rgb(255, 195, 189); transform-origin: 286.085px 397.585px;"
            id="elntcsb7untz" class="animable"></polygon>
        <path
            d="M282.27,406.27h10.16a.73.73,0,0,1,.71.57l1.65,7.41a1.22,1.22,0,0,1-1.22,1.48c-3.27-.05-5.66-.24-9.78-.24-2.53,0-10.17.26-13.67.26s-4-3.46-2.52-3.77c6.42-1.41,11.26-3.35,13.32-5.2A2,2,0,0,1,282.27,406.27Z"
            style="fill: rgb(38, 50, 56); transform-origin: 280.818px 411.01px;" id="elxuagh8kygy"
            class="animable"></path>
        <path
            d="M245.43,404.93l9-1a.72.72,0,0,1,.77.49l2.47,7.17a1.21,1.21,0,0,1-1,1.61c-3.27.32-8,.66-12.11,1.13-4.8.54-5.6,1.83-11.25,1.69-3.43-.08-4.3-3.56-2.86-3.84,6.56-1.27,7.82-2.26,13-6.35A3.82,3.82,0,0,1,245.43,404.93Z"
            style="fill: rgb(38, 50, 56); transform-origin: 243.762px 409.978px;" id="eldx4nczkwy16"
            class="animable"></path>
        <path
            d="M252.79,162.25c-2.8,2.31-5.56,4.32-8.41,6.38s-5.76,4-8.76,5.83-6.07,3.62-9.3,5.23A67.3,67.3,0,0,1,216.06,184c-.93.29-1.84.54-2.89.79a27.87,27.87,0,0,1-3.11.5c-1.88.21-3.64.29-5.4.38-3.51.16-7,.15-10.4.13-6.88-.08-13.7-.41-20.56-1l-.1-6.26c6.73-.86,13.49-1.61,20.18-2.36,3.34-.37,6.68-.77,9.93-1.2,1.63-.22,3.24-.48,4.72-.76a19.16,19.16,0,0,0,1.9-.44c.58-.2,1.3-.43,2-.7a68.21,68.21,0,0,0,8.31-4.06c2.77-1.59,5.53-3.3,8.25-5.11s5.43-3.69,8.12-5.6,5.36-3.94,7.88-5.86Z"
            style="fill: rgb(255, 195, 189); transform-origin: 213.195px 169.13px;"
            id="elp9vomgscg1l" class="animable"></path>
        <path
            d="M260.94,155.13c-1.2,7.88-17.79,19.93-17.79,19.93l-11.91-14.77a197.7,197.7,0,0,1,16.57-15.76C253.16,140.15,262.24,146.55,260.94,155.13Z"
            style="fill: #A783FA; transform-origin: 246.153px 159.086px;" id="elvcap2qnzmwh"
            class="animable"></path>
        <path d="M175.9,179.18l-4.73-3.37-.52,10.65s2.62,0,3.63-1.92Z"
            style="fill: rgb(255, 195, 189); transform-origin: 173.275px 181.135px;"
            id="elbob8fic3hdg" class="animable"></path>
        <polygon points="166.89 172.71 165.92 183.14 170.65 186.46 171.17 175.81 166.89 172.71"
            style="fill: rgb(255, 195, 189); transform-origin: 168.545px 179.585px;"
            id="el51ikckuv06" class="animable"></polygon>
        <g id="elktykmxtkth9">
            <polygon points="242.49 387.43 244.07 397.19 252.42 396.25 250.84 386.49 242.49 387.43"
                style="opacity: 0.2; transform-origin: 247.455px 391.84px;" class="animable"
                id="el27ekgv22f85"></polygon>
        </g>
        <g id="el1fy8vxg1x8s">
            <polygon points="289.22 387.93 280.88 387.93 281.95 397.89 290.29 397.89 289.22 387.93"
                style="opacity: 0.2; transform-origin: 285.585px 392.91px;" class="animable"
                id="elu0dug4bpcxl"></polygon>
        </g>
        <path
            d="M289.34,144.78a4.76,4.76,0,0,1,3.58,5.81,195.86,195.86,0,0,0-4.08,22.79c-.79,6.46-1.26,12.63-1.55,18.22-.7,13.1-.41,23.09-.8,26.48L242,215c-4.52-35.4.77-58,3.75-67.17a7.94,7.94,0,0,1,6.5-5.44c1.71-.22,3.75-.44,5.91-.57.75,0,1.52-.07,2.29-.09A165.41,165.41,0,0,1,279.38,143c1.19.14,2.39.32,3.56.5C285.27,143.91,287.5,144.37,289.34,144.78Z"
            style="fill: rgb(38, 50, 56); transform-origin: 266.654px 179.905px;" id="eleojvsilj6e8"
            class="animable"></path>
        <path
            d="M279,121.61c-1.62,6-3.59,17.06.38,21.42-10.31,6.94-16.89,16.7-18.79,14.58-1-1.11-1.42-14-.12-15.9,6.9-1.15,7.08-6.19,6.23-11Z"
            style="fill: rgb(255, 195, 189); transform-origin: 269.518px 139.758px;"
            id="eloqpaixqqy6" class="animable"></path>
        <path
            d="M278.58,140.54s-16.81,7.44-19,24.06c4.62-5.36,14.85-11.19,14.85-11.19l-4.51-1.29a46.07,46.07,0,0,1,8.86-2.39c-.5-2.3,2.17-6.88,2.17-6.88Z"
            style="fill: #A783FA; transform-origin: 270.265px 152.57px;" id="elis7r3et31mr"
            class="animable"></path>
        <path
            d="M263.42,140.27s2.23,9.5-3.87,24.33c-.95-5.66-4.94-15.13-4.94-15.13l4.12,1.11s-.21-1.91-3.54-4.46c1.24-2.38,5.12-5.19,5.12-5.19Z"
            style="fill: #A783FA; transform-origin: 259.214px 152.435px;" id="elycid7rnv8v"
            class="animable"></path>
        <g id="el6vgcyn0ks8w">
            <path
                d="M274,125.32l-7.28,5.38a19,19,0,0,1,.35,3.4c2.62-.19,6.38-2.79,6.84-5.49A9.08,9.08,0,0,0,274,125.32Z"
                style="opacity: 0.2; transform-origin: 270.414px 129.71px;" class="animable"
                id="elnolvrqtfms"></path>
        </g>
        <path d="M257.64,104.23c-4.07.17-6.31,7.18-2.19,13S263.11,104,257.64,104.23Z"
            style="fill: rgb(38, 50, 56); transform-origin: 256.849px 111.282px;" id="elq5bgg6fqdze"
            class="animable"></path>
        <path
            d="M277.69,110.4c.48,8.26,1.18,13.07-2.45,17.77-5.47,7.08-16.05,4.55-19-3.4-2.64-7.16-3-19.47,4.65-23.69A11.29,11.29,0,0,1,277.69,110.4Z"
            style="fill: rgb(255, 195, 189); transform-origin: 266.307px 115.979px;"
            id="elkkjpata8mk8" class="animable"></path>
        <path
            d="M278.9,116.74c-6.26-4-8.47-9.27-8.95-11.92-2.43.57-14.49,6.12-18.2,0s1-9.72,7.9-5.95c-3.07-5.42-.28-8.07,9.37-8.31s8.35,5.36,8.35,5.36,7.3-3.18,9.89,2.42C290.25,104.78,284.73,115.77,278.9,116.74Z"
            style="fill: rgb(38, 50, 56); transform-origin: 269.273px 103.646px;" id="elmvk7qak6epn"
            class="animable"></path>
        <path d="M275.72,94.44c.09,0,3.65.86,7.76-3.27-.73,3.52-7.11,5.87-7.11,5.87Z"
            style="fill: rgb(38, 50, 56); transform-origin: 279.6px 94.105px;" id="elqj7ld9m3zmo"
            class="animable"></path>
        <path d="M280.51,106.53c-3.84-1.33-8.5,4.37-6.78,11.25S285.7,108.32,280.51,106.53Z"
            style="fill: rgb(38, 50, 56); transform-origin: 277.663px 112.899px;"
            id="el0k8v7uknesov" class="animable"></path>
        <path
            d="M282.69,117.27a7.82,7.82,0,0,1-3.2,5.08c-2.26,1.58-4.3-.22-4.43-2.83-.12-2.35.92-6,3.55-6.54S283.1,114.75,282.69,117.27Z"
            style="fill: rgb(255, 195, 189); transform-origin: 278.899px 117.921px;"
            id="el8ww85tn2n1v" class="animable"></path>
        <path
            d="M254.55,308.91c2-24.38,16.7-91.89,16.7-91.89L242,215s-11.28,67-12.14,92.44c-.9,26.45,9.74,85.22,9.74,85.22l14-1.6S252.53,333.4,254.55,308.91Z"
            style="fill: #A783FA; transform-origin: 250.528px 303.83px;" id="eldkhewief6je"
            class="animable"></path>
        <g id="el52iwp57gw45">
            <path
                d="M254.55,308.91c2-24.38,16.7-91.89,16.7-91.89L242,215s-11.28,67-12.14,92.44c-.9,26.45,9.74,85.22,9.74,85.22l14-1.6S252.53,333.4,254.55,308.91Z"
                style="fill: rgb(255, 255, 255); opacity: 0.5; transform-origin: 250.528px 303.83px;"
                class="animable" id="eljislos1cr6"></path>
        </g>
        <g id="eli09y5o2qfg">
            <path d="M260.23,239.88c-5.9,7.54-6,34-3.72,53.58,2.17-14.12,5.59-32,8.6-47Z"
                style="opacity: 0.2; transform-origin: 260.12px 266.67px;" class="animable"
                id="elw1u8y9w5qi"></path>
        </g>
        <path
            d="M257.78,216.08s3.16,71.38,6.68,95.55C268.31,338.1,278.1,396,278.1,396h15.27s-2.51-54.49-4.53-80.5c-2.29-29.62-2.35-97.38-2.35-97.38Z"
            style="fill: #A783FA; transform-origin: 275.575px 306.04px;" id="eluu8dk3akgq"
            class="animable"></path>
        <g id="el0ydnxcywaj7q">
            <path
                d="M257.78,216.08s3.16,71.38,6.68,95.55C268.31,338.1,278.1,396,278.1,396h15.27s-2.51-54.49-4.53-80.5c-2.29-29.62-2.35-97.38-2.35-97.38Z"
                style="fill: rgb(255, 255, 255); opacity: 0.5; transform-origin: 275.575px 306.04px;"
                class="animable" id="ele15klvigtku"></path>
        </g>
        <polygon points="276.27 396.29 294.25 396.29 294.25 390.92 274.15 390.57 276.27 396.29"
            style="fill: #A783FA; transform-origin: 284.2px 393.43px;" id="elmz312koacam"
            class="animable"></polygon>
        <polygon points="238.98 394.22 255.7 392.32 255.09 386.92 236.37 388.75 238.98 394.22"
            style="fill: #A783FA; transform-origin: 246.035px 390.57px;" id="elygydlocs8h"
            class="animable"></polygon>
        <path
            d="M265.53,114.18c.08.67-.21,1.26-.65,1.31s-.85-.45-.94-1.12.21-1.25.65-1.3S265.45,113.52,265.53,114.18Z"
            style="fill: rgb(38, 50, 56); transform-origin: 264.734px 114.28px;" id="elrpqxcns8rv"
            class="animable"></path>
        <path
            d="M258,115.09c.08.67-.21,1.25-.65,1.31s-.85-.45-.93-1.12.21-1.25.64-1.3S257.9,114.42,258,115.09Z"
            style="fill: rgb(38, 50, 56); transform-origin: 257.21px 115.191px;" id="el79hfmdtmiw3"
            class="animable"></path>
        <path d="M260.42,115.14a24.11,24.11,0,0,1-2.51,6.09,3.89,3.89,0,0,0,3.27.21Z"
            style="fill: rgb(237, 132, 126); transform-origin: 259.545px 118.422px;"
            id="elx02ogph4aof" class="animable"></path>
        <path
            d="M267.58,111.46a.39.39,0,0,1-.4-.1,3.16,3.16,0,0,0-2.67-1A.4.4,0,0,1,264,110a.38.38,0,0,1,.32-.46,3.89,3.89,0,0,1,3.38,1.23.39.39,0,0,1,0,.56A.46.46,0,0,1,267.58,111.46Z"
            style="fill: rgb(38, 50, 56); transform-origin: 265.905px 110.493px;" id="elpbijo7xws7"
            class="animable"></path>
        <path
            d="M264.68,124.11h0a6.06,6.06,0,0,0,4.32-3.55.21.21,0,0,0-.12-.27.22.22,0,0,0-.28.13,5.73,5.73,0,0,1-4,3.27.23.23,0,0,0-.16.26A.23.23,0,0,0,264.68,124.11Z"
            style="fill: rgb(38, 50, 56); transform-origin: 266.725px 122.194px;" id="elrg318f72b19"
            class="animable"></path>
        <path
            d="M254.43,112.88a.33.33,0,0,1-.24,0,.4.4,0,0,1-.25-.5,3.94,3.94,0,0,1,2.55-2.55.39.39,0,0,1,.48.29.38.38,0,0,1-.28.47h0a3.14,3.14,0,0,0-2,2A.36.36,0,0,1,254.43,112.88Z"
            style="fill: rgb(38, 50, 56); transform-origin: 255.452px 111.36px;" id="eli2bdktx051"
            class="animable"></path>
        <path
            d="M279.51,407.73a2.51,2.51,0,0,1-1.6-.43,1.18,1.18,0,0,1-.41-1,.61.61,0,0,1,.34-.56c.92-.48,3.61,1.18,3.91,1.37a.18.18,0,0,1,.09.2.19.19,0,0,1-.15.16A9.72,9.72,0,0,1,279.51,407.73ZM278.27,406a.58.58,0,0,0-.25.05.24.24,0,0,0-.13.23.81.81,0,0,0,.27.72c.46.38,1.55.44,3,.15A8.07,8.07,0,0,0,278.27,406Z"
            style="fill: #A783FA; transform-origin: 279.67px 406.695px;" id="elj0noqjq1bz"
            class="animable"></path>
        <path
            d="M281.65,407.43a.18.18,0,0,1-.1,0c-.86-.47-2.53-2.3-2.35-3.22a.65.65,0,0,1,.63-.52,1.06,1.06,0,0,1,.84.25c1,.79,1.17,3.2,1.17,3.3a.17.17,0,0,1-.09.18A.17.17,0,0,1,281.65,407.43ZM280,404.05h-.08c-.26,0-.28.15-.29.2-.11.55,1,1.93,1.81,2.58a4.68,4.68,0,0,0-1-2.61A.69.69,0,0,0,280,404.05Z"
            style="fill: #A783FA; transform-origin: 280.514px 405.559px;" id="elb0zrr576sm"
            class="animable"></path>
        <path
            d="M244.75,406.16h0c-1.3.42-3.64,1-4.64.31a1.08,1.08,0,0,1-.47-.91.63.63,0,0,1,.26-.56c.94-.66,4.47.64,4.86.79a.21.21,0,0,1,.13.19A.19.19,0,0,1,244.75,406.16Zm-4.61-.86,0,0a.26.26,0,0,0-.1.23.71.71,0,0,0,.31.6c.56.4,1.93.32,3.73-.19C242.63,405.49,240.72,405,240.14,405.3Z"
            style="fill: #A783FA; transform-origin: 242.264px 405.802px;" id="elobbqd95hisf"
            class="animable"></path>
        <path
            d="M244.75,406.16a.22.22,0,0,1-.16,0c-1.05-.33-3.23-1.9-3.18-2.85,0-.23.13-.52.66-.63a1.42,1.42,0,0,1,1.13.21c1.15.75,1.63,3,1.65,3a.22.22,0,0,1-.06.19Zm-2.81-3c-.13.07-.14.15-.14.19,0,.57,1.48,1.82,2.57,2.32a4.62,4.62,0,0,0-1.39-2.43,1,1,0,0,0-.82-.16A.68.68,0,0,0,241.94,403.15Z"
            style="fill: #A783FA; transform-origin: 243.131px 404.408px;" id="elpyy945qq6z"
            class="animable"></path>
        <path
            d="M296.36,156.8c-.21,3.26-.59,6.29-1,9.42s-.93,6.2-1.52,9.3a109.59,109.59,0,0,1-5.13,18.58l-1,2.33-.25.58-.06.15-.1.22L287,198a10.09,10.09,0,0,1-1.38,2,12.19,12.19,0,0,1-3,2.48,17.87,17.87,0,0,1-2.87,1.39,37.53,37.53,0,0,1-10.26,2.15,86,86,0,0,1-19.08-.71l.23-6.26,4.41-.5c1.48-.17,2.95-.4,4.41-.6,2.92-.43,5.81-.91,8.57-1.55a32.65,32.65,0,0,0,7.37-2.44,4.08,4.08,0,0,0,1.61-1.23c0-.15-.29.48.08-.52l.66-1.93a126,126,0,0,0,3.7-16.86c.48-2.9.88-5.83,1.28-8.77s.71-5.93,1-8.74Z"
            style="fill: rgb(255, 195, 189); transform-origin: 273.385px 181.083px;"
            id="elfjn65574pbm" class="animable"></path>
        <path
            d="M297.1,150.76c4.08,6.84.6,28.36.6,28.36l-21.4-4s-1.16-12.32,2.92-21.78C283.65,143.08,292.16,142.46,297.1,150.76Z"
            style="fill: #A783FA; transform-origin: 287.615px 162.079px;" id="elmf3tfdi9bz"
            class="animable"></path>
        <path
            d="M244.68,218.3l-11.35-52.8a10.68,10.68,0,0,0-9.93-8.17H179.92a10.7,10.7,0,0,1,9.93,8.17l11.34,52.8a10.7,10.7,0,0,0,9.93,8.17h43.49A10.69,10.69,0,0,1,244.68,218.3Z"
            style="fill: rgb(38, 50, 56); transform-origin: 217.265px 191.9px;" id="elj97cyyoczyq"
            class="animable"></path>
        <g id="el14ckzqtssshg">
            <path
                d="M244.68,218.3l-11.35-52.8a10.68,10.68,0,0,0-9.93-8.17H179.92a10.7,10.7,0,0,1,9.93,8.17l11.34,52.8a10.7,10.7,0,0,0,9.93,8.17h43.49A10.69,10.69,0,0,1,244.68,218.3Z"
                style="fill: #A783FA; opacity: 0.7; transform-origin: 217.265px 191.9px;"
                class="animable" id="elybkxdi2zbrj"></path>
        </g>
        <g id="eloodisesgwj">
            <rect x="156.02" y="227.77" width="12.39" height="1"
                style="fill: #A783FA; transform-origin: 162.215px 228.27px; transform: rotate(-84.8572deg);"
                class="animable" id="elaky27n97jfs"></rect>
        </g>
        <g id="el475vau2s4jn">
            <rect x="158.35" y="241.43" width="5.21" height="1"
                style="fill: #A783FA; transform-origin: 160.955px 241.93px; transform: rotate(-84.73deg);"
                class="animable" id="elvi6a4nonva"></rect>
        </g>
        <path
            d="M179.92,157.33H223.4a9.13,9.13,0,0,0-8.91,8.17L203.21,288.18a9.14,9.14,0,0,1-8.92,8.17H167.15a7.34,7.34,0,0,1-7.43-8.17L171,165.5A9.14,9.14,0,0,1,179.92,157.33Z"
            style="fill: #A783FA; transform-origin: 191.536px 226.841px;" id="elx5pzrmdpk5m"
            class="animable"></path>
        <path d="M186.86,288.18a7.34,7.34,0,0,0,7.43,8.17H150.8a7.33,7.33,0,0,1-7.42-8.17Z"
            style="fill: rgb(38, 50, 56); transform-origin: 168.811px 292.266px;" id="el7hq1exlplsc"
            class="animable"></path>
        <g id="elva37fqfxime">
            <path d="M186.86,288.18a7.34,7.34,0,0,0,7.43,8.17H150.8a7.33,7.33,0,0,1-7.42-8.17Z"
                style="fill: #A783FA; opacity: 0.7; transform-origin: 168.811px 292.266px;"
                class="animable" id="el6nof8xpmhoh"></path>
        </g>
        <g id="elif6xaduqlwb">
            <g style="opacity: 0.5; transform-origin: 187.585px 222.26px;" class="animable"
                id="el305g23cv3fp">
                <path
                    d="M207,171.08H177.52a1.6,1.6,0,0,1-1.61-1.78h0a2,2,0,0,1,1.94-1.78h29.43a1.6,1.6,0,0,1,1.61,1.78h0A2,2,0,0,1,207,171.08Z"
                    style="fill: rgb(255, 255, 255); transform-origin: 192.4px 169.3px;"
                    id="el0cum240axmgf" class="animable"></path>
                <path
                    d="M206.08,180.7H176.65a1.6,1.6,0,0,1-1.62-1.78h0a2,2,0,0,1,1.94-1.78H206.4a1.6,1.6,0,0,1,1.62,1.78h0A2,2,0,0,1,206.08,180.7Z"
                    style="fill: rgb(255, 255, 255); transform-origin: 191.525px 178.92px;"
                    id="eln3mkn4j5gb" class="animable"></path>
                <path
                    d="M198,190.33H175.77a1.6,1.6,0,0,1-1.61-1.78h0a2,2,0,0,1,1.94-1.78h22.21a1.6,1.6,0,0,1,1.62,1.78h0A2,2,0,0,1,198,190.33Z"
                    style="fill: rgb(255, 255, 255); transform-origin: 187.045px 188.55px;"
                    id="el858mczkvb9v" class="animable"></path>
                <path
                    d="M182.43,200H174.9a1.6,1.6,0,0,1-1.62-1.77h0a2,2,0,0,1,1.94-1.78h7.54a1.6,1.6,0,0,1,1.61,1.78h0A2,2,0,0,1,182.43,200Z"
                    style="fill: rgb(255, 255, 255); transform-origin: 178.826px 198.225px;"
                    id="elje0ex35cr1s" class="animable"></path>
                <path
                    d="M203.45,209.58H174a1.6,1.6,0,0,1-1.61-1.78h0a2,2,0,0,1,1.94-1.78h29.42a1.6,1.6,0,0,1,1.62,1.78h0A2,2,0,0,1,203.45,209.58Z"
                    style="fill: rgb(255, 255, 255); transform-origin: 188.88px 207.8px;"
                    id="eld7em3lvqclf" class="animable"></path>
                <path
                    d="M191,219.21H173.15a1.6,1.6,0,0,1-1.62-1.78h0a2,2,0,0,1,1.94-1.78h17.84a1.61,1.61,0,0,1,1.62,1.78h0A2,2,0,0,1,191,219.21Z"
                    style="fill: rgb(255, 255, 255); transform-origin: 182.229px 217.43px;"
                    id="elwku2t2933xm" class="animable"></path>
                <path
                    d="M201.7,228.83H172.27a1.6,1.6,0,0,1-1.61-1.78h0a2,2,0,0,1,1.94-1.78H202a1.61,1.61,0,0,1,1.62,1.78h0A2,2,0,0,1,201.7,228.83Z"
                    style="fill: rgb(255, 255, 255); transform-origin: 187.139px 227.05px;"
                    id="eljaaeav69vt9" class="animable"></path>
                <path
                    d="M193.61,238.46H171.4a1.6,1.6,0,0,1-1.62-1.78h0a2,2,0,0,1,1.94-1.78h22.21a1.6,1.6,0,0,1,1.62,1.78h0A2,2,0,0,1,193.61,238.46Z"
                    style="fill: rgb(255, 255, 255); transform-origin: 182.665px 236.68px;"
                    id="elc2nlsm8qvyq" class="animable"></path>
                <path
                    d="M178.06,248.09h-7.54a1.61,1.61,0,0,1-1.62-1.78h0a2,2,0,0,1,1.95-1.78h7.53a1.6,1.6,0,0,1,1.62,1.78h0A2,2,0,0,1,178.06,248.09Z"
                    style="fill: rgb(255, 255, 255); transform-origin: 174.451px 246.31px;"
                    id="elcxp3fev1wdv" class="animable"></path>
                <path
                    d="M199.07,257.71H169.65a1.6,1.6,0,0,1-1.62-1.78h0a2,2,0,0,1,1.94-1.78H199.4a1.6,1.6,0,0,1,1.61,1.78h0A2,2,0,0,1,199.07,257.71Z"
                    style="fill: rgb(255, 255, 255); transform-origin: 184.52px 255.93px;"
                    id="ell5uxjt63ura" class="animable"></path>
                <path
                    d="M186.61,267.34H168.77a1.6,1.6,0,0,1-1.62-1.78h0a2,2,0,0,1,1.94-1.78h17.84a1.6,1.6,0,0,1,1.62,1.78h0A2,2,0,0,1,186.61,267.34Z"
                    style="fill: rgb(255, 255, 255); transform-origin: 177.85px 265.56px;"
                    id="el4lqnganxyl6" class="animable"></path>
                <path
                    d="M197.32,277H167.9a1.6,1.6,0,0,1-1.62-1.78h0a2,2,0,0,1,1.94-1.77h29.43a1.6,1.6,0,0,1,1.61,1.77h0A2,2,0,0,1,197.32,277Z"
                    style="fill: rgb(255, 255, 255); transform-origin: 182.769px 275.225px;"
                    id="el8rb47afd5mw" class="animable"></path>
            </g>
        </g>
        <path d="M253.23,199.62l-6.39-5.55-3,10.22s6.49,3.52,8.73.29Z"
            style="fill: rgb(255, 195, 189); transform-origin: 248.535px 200.007px;"
            id="eluzge8tg6tcm" class="animable"></path>
        <polygon points="239.89 193.67 237.81 202.24 243.85 204.29 246.84 194.07 239.89 193.67"
            style="fill: rgb(255, 195, 189); transform-origin: 242.325px 198.98px;"
            id="el8jfu6196ss9" class="animable"></polygon>
    </g>
    <defs>
        <filter id="active" height="200%">
            <feMorphology in="SourceAlpha" result="DILATED" operator="dilate" radius="2"></feMorphology>
            <feFlood flood-color="#32DFEC" flood-opacity="1" result="PINK"></feFlood>
            <feComposite in="PINK" in2="DILATED" operator="in" result="OUTLINE"></feComposite>
            <feMerge>
                <feMergeNode in="OUTLINE"></feMergeNode>
                <feMergeNode in="SourceGraphic"></feMergeNode>
            </feMerge>
        </filter>
        <filter id="hover" height="200%">
            <feMorphology in="SourceAlpha" result="DILATED" operator="dilate" radius="2"></feMorphology>
            <feFlood flood-color="#ff0000" flood-opacity="0.5" result="PINK"></feFlood>
            <feComposite in="PINK" in2="DILATED" operator="in" result="OUTLINE"></feComposite>
            <feMerge>
                <feMergeNode in="OUTLINE"></feMergeNode>
                <feMergeNode in="SourceGraphic"></feMergeNode>
            </feMerge>
            <feColorMatrix type="matrix"
                values="0   0   0   0   0                0   1   0   0   0                0   0   0   0   0                0   0   0   1   0 "></feColorMatrix>
        </filter>
    </defs>
</svg>